HIERARCHY
ROOT Hips
{
	OFFSET 0.000000 35.082581 0.000000
	CHANNELS 6 Xposition Yposition Zposition Xrotation Yrotation Zrotation 
	JOINT Spine
	{
		OFFSET 0.000000 6.876099 0.125700
		CHANNELS 3 Xrotation Yrotation Zrotation
		JOINT Spine1
		{
			OFFSET 0.000000 5.730043 0.104720
			CHANNELS 3 Xrotation Yrotation Zrotation
			JOINT Spine1_split
			{
				OFFSET 0.000000 5.730043 0.104720
				CHANNELS 3 Xrotation Yrotation Zrotation
				JOINT Spine2
				{
					OFFSET 0.000000 5.730043 0.104720
					CHANNELS 3 Xrotation Yrotation Zrotation
					JOINT Neck
					{
						OFFSET 0.000000 10.314075 0.188496
						CHANNELS 3 Xrotation Yrotation Zrotation
						JOINT Head
						{
							OFFSET 0.000000 7.643700 -2.377400
							CHANNELS 3 Xrotation Yrotation Zrotation
							JOINT HeadTop_End
							{
								OFFSET 0.000000 43.788605 -13.619600
								CHANNELS 3 Xrotation Yrotation Zrotation
								End Site
								{
									OFFSET 0.000000 0.000000 0.000000
								}
							}
						}
					}
					JOINT LeftShoulder
					{
						OFFSET 2.196100 4.412489 0.087492
						CHANNELS 3 Xrotation Yrotation Zrotation
						JOINT LeftShoulder_split
						{
							OFFSET 2.196100 4.412489 0.087492
							CHANNELS 3 Xrotation Yrotation Zrotation
							JOINT LeftArm
							{
								OFFSET 8.771219 -2.981674 -0.026999
								CHANNELS 3 Xrotation Yrotation Zrotation
								JOINT LeftForeArm
								{
									OFFSET 8.512804 0.000000 -0.000000
									CHANNELS 3 Xrotation Yrotation Zrotation
									JOINT LeftHand
									{
										OFFSET 18.484802 0.000000 -0.000000
										CHANNELS 3 Xrotation Yrotation Zrotation
										JOINT LeftHandThumb1
										{
											OFFSET 2.499420 -1.158070 2.653252
											CHANNELS 3 Xrotation Yrotation Zrotation
											JOINT LeftHandThumb2
											{
												OFFSET 2.370079 -1.368366 1.368366
												CHANNELS 3 Xrotation Yrotation Zrotation
												JOINT LeftHandThumb3
												{
													OFFSET 2.676727 -1.545410 1.545409
													CHANNELS 3 Xrotation Yrotation Zrotation
													JOINT LeftHandThumb4
													{
														OFFSET 1.692226 -0.977005 0.977007
														CHANNELS 3 Xrotation Yrotation Zrotation
														End Site
														{
															OFFSET 0.000000 0.000000 0.000000
														}
													}
												}
											}
										}
										JOINT LeftHandIndex1
										{
											OFFSET 7.924831 -0.457527 2.345128
											CHANNELS 3 Xrotation Yrotation Zrotation
											JOINT LeftHandIndex2
											{
												OFFSET 3.643303 0.000000 0.000000
												CHANNELS 3 Xrotation Yrotation Zrotation
												JOINT LeftHandIndex3
												{
													OFFSET 3.810799 0.000000 0.000000
													CHANNELS 3 Xrotation Yrotation Zrotation
													JOINT LeftHandIndex4
													{
														OFFSET 2.403702 0.000000 0.000000
														CHANNELS 3 Xrotation Yrotation Zrotation
														End Site
														{
															OFFSET 0.000000 0.000000 0.000000
														}
													}
												}
											}
										}
										JOINT LeftHandMiddle1
										{
											OFFSET 8.563995 0.000000 -0.000000
											CHANNELS 3 Xrotation Yrotation Zrotation
											JOINT LeftHandMiddle2
											{
												OFFSET 3.861618 0.000000 0.000000
												CHANNELS 3 Xrotation Yrotation Zrotation
												JOINT LeftHandMiddle3
												{
													OFFSET 3.701603 0.000000 0.000000
													CHANNELS 3 Xrotation Yrotation Zrotation
													JOINT LeftHandMiddle4
													{
														OFFSET 2.322544 0.000000 0.000000
														CHANNELS 3 Xrotation Yrotation Zrotation
														End Site
														{
															OFFSET 0.000000 0.000000 0.000000
														}
													}
												}
											}
										}
										JOINT LeftHandRing1
										{
											OFFSET 8.426460 -0.424637 -3.286992
											CHANNELS 3 Xrotation Yrotation Zrotation
											JOINT LeftHandRing2
											{
												OFFSET 3.126408 0.000000 0.000000
												CHANNELS 3 Xrotation Yrotation Zrotation
												JOINT LeftHandRing3
												{
													OFFSET 3.085026 0.000000 0.000000
													CHANNELS 3 Xrotation Yrotation Zrotation
													JOINT LeftHandRing4
													{
														OFFSET 1.644005 0.000000 0.000000
														CHANNELS 3 Xrotation Yrotation Zrotation
														End Site
														{
															OFFSET 0.000000 0.000000 0.000000
														}
													}
												}
											}
										}
									}
								}
							}
						}
					}
					JOINT RightShoulder
					{
						OFFSET -2.196100 4.412496 0.070690
						CHANNELS 3 Xrotation Yrotation Zrotation
						JOINT RightShoulder_split
						{
							OFFSET -2.196100 4.412496 0.070690
							CHANNELS 3 Xrotation Yrotation Zrotation
							JOINT RightArm
							{
								OFFSET -8.771282 -2.981682 -0.094208
								CHANNELS 3 Xrotation Yrotation Zrotation
								JOINT RightForeArm
								{
									OFFSET -8.494598 0.000000 0.000000
									CHANNELS 3 Xrotation Yrotation Zrotation
									JOINT RightHand
									{
										OFFSET -18.483803 0.000000 0.000001
										CHANNELS 3 Xrotation Yrotation Zrotation
										JOINT RightHandThumb1
										{
											OFFSET -2.527351 -1.008072 2.575253
											CHANNELS 3 Xrotation Yrotation Zrotation
											JOINT RightHandThumb2
											{
												OFFSET -2.321518 -1.340328 1.340329
												CHANNELS 3 Xrotation Yrotation Zrotation
												JOINT RightHandThumb3
												{
													OFFSET -2.657753 -1.534454 1.534455
													CHANNELS 3 Xrotation Yrotation Zrotation
													JOINT RightHandThumb4
													{
														OFFSET -1.807510 -1.043568 1.043567
														CHANNELS 3 Xrotation Yrotation Zrotation
														End Site
														{
															OFFSET 0.000000 0.000000 0.000000
														}
													}
												}
											}
										}
										JOINT RightHandIndex1
										{
											OFFSET -8.811420 0.015533 2.887987
											CHANNELS 3 Xrotation Yrotation Zrotation
											JOINT RightHandIndex2
											{
												OFFSET -3.537502 0.000000 0.000000
												CHANNELS 3 Xrotation Yrotation Zrotation
												JOINT RightHandIndex3
												{
													OFFSET -3.356201 0.000000 0.000000
													CHANNELS 3 Xrotation Yrotation Zrotation
													JOINT RightHandIndex4
													{
														OFFSET -1.933098 0.000000 0.000000
														CHANNELS 3 Xrotation Yrotation Zrotation
														End Site
														{
															OFFSET 0.000000 0.000000 0.000000
														}
													}
												}
											}
										}
										JOINT RightHandMiddle1
										{
											OFFSET -8.178135 0.000000 0.000000
											CHANNELS 3 Xrotation Yrotation Zrotation
											JOINT RightHandMiddle2
											{
												OFFSET -3.901302 0.000000 0.000000
												CHANNELS 3 Xrotation Yrotation Zrotation
												JOINT RightHandMiddle3
												{
													OFFSET -3.909599 0.000000 0.000000
													CHANNELS 3 Xrotation Yrotation Zrotation
													JOINT RightHandMiddle4
													{
														OFFSET -2.376003 0.000000 0.000000
														CHANNELS 3 Xrotation Yrotation Zrotation
														End Site
														{
															OFFSET 0.000000 0.000000 0.000000
														}
													}
												}
											}
										}
										JOINT RightHandRing1
										{
											OFFSET -7.559013 0.014137 -2.865403
											CHANNELS 3 Xrotation Yrotation Zrotation
											JOINT RightHandRing2
											{
												OFFSET -3.449306 0.000000 0.000000
												CHANNELS 3 Xrotation Yrotation Zrotation
												JOINT RightHandRing3
												{
													OFFSET -3.362106 0.000000 0.000000
													CHANNELS 3 Xrotation Yrotation Zrotation
													JOINT RightHandRing4
													{
														OFFSET -2.076401 0.000000 0.000000
														CHANNELS 3 Xrotation Yrotation Zrotation
														End Site
														{
															OFFSET 0.000000 0.000000 0.000000
														}
													}
												}
											}
										}
									}
								}
							}
						}
					}
				}
			}
		}
	}
	JOINT LeftUpLeg
	{
		OFFSET 10.205400 -3.823500 0.155100
		CHANNELS 3 Xrotation Yrotation Zrotation
		JOINT LeftLeg
		{
			OFFSET 0.708757 -12.982077 0.567790
			CHANNELS 3 Xrotation Yrotation Zrotation
			JOINT LeftFoot
			{
				OFFSET -0.708756 -10.717838 -2.184338
				CHANNELS 3 Xrotation Yrotation Zrotation
				JOINT LeftToeBase
				{
					OFFSET 0.108149 -7.191104 7.560241
					CHANNELS 3 Xrotation Yrotation Zrotation
					JOINT LeftToe_End
					{
						OFFSET 0.070230 0.081724 4.490308
						CHANNELS 3 Xrotation Yrotation Zrotation
						End Site
						{
							OFFSET 0.000000 0.000000 0.000000
						}
					}
				}
			}
		}
	}
	JOINT RightUpLeg
	{
		OFFSET -10.205400 -3.823500 0.005500
		CHANNELS 3 Xrotation Yrotation Zrotation
		JOINT RightLeg
		{
			OFFSET -0.708756 -12.982134 0.610632
			CHANNELS 3 Xrotation Yrotation Zrotation
			JOINT RightFoot
			{
				OFFSET 0.708754 -10.717769 -1.945823
				CHANNELS 3 Xrotation Yrotation Zrotation
				JOINT RightToeBase
				{
					OFFSET -0.108140 -7.191069 7.372968
					CHANNELS 3 Xrotation Yrotation Zrotation
					JOINT RightToe_End
					{
						OFFSET -0.070227 0.081735 4.479403
						CHANNELS 3 Xrotation Yrotation Zrotation
						End Site
						{
							OFFSET 0.000000 0.000000 0.000000
						}
					}
				}
			}
		}
	}
}
MOTION
Frames: 6
Frame Time: 0.016667
1.355006 27.554779 -0.784904 -3.158233 -42.747521 16.473088 0.378786 -2.097950 8.318535 0.027305 -1.386098 5.062940 0.000000 0.000000 0.000000 -0.080029 -1.272372 5.054153 -11.424511 3.372363 7.860913 -19.486301 29.446236 -6.823219 0.000002 0.000001 -0.000000 -0.548183 2.093923 14.136003 0.000000 0.000000 0.000000 -33.452074 -33.141990 -47.500762 0.000074 -87.864428 0.000137 -23.599367 -10.877259 -3.087982 14.035335 -26.979157 7.263424 13.226123 36.584860 -28.243000 0.587668 16.311303 -9.809429 -0.000003 -0.000002 0.000001 0.201894 1.658369 -13.881104 0.378647 2.256071 -19.053504 0.095284 1.143811 -9.523032 -0.000000 -0.000000 0.000005 0.201413 1.656499 -13.865104 0.379296 2.257904 -19.069509 0.095286 1.143804 -9.523043 0.000001 0.000001 0.000002 0.201883 1.658370 -13.881111 0.378660 2.256070 -19.053501 0.095281 1.143807 -9.523037 -0.000000 -0.000000 0.000002 -0.011253 -5.892461 7.391235 0.000000 0.000000 0.000000 118.821236 72.028108 -83.806039 -0.000027 25.801449 0.000028 -19.295687 3.278946 -3.516600 40.606619 -3.110578 26.124196 -37.849524 -44.265042 -46.874974 -12.282863 -22.415229 -17.633359 0.000001 -0.000002 0.000003 3.635327 -6.110978 61.464456 7.728615 -6.904479 96.464462 2.305165 -5.174786 47.998731 -0.000002 -0.000002 -0.000003 3.635343 -6.110976 61.464463 7.728621 -6.904468 96.464442 2.305149 -5.174786 47.998731 -0.000002 -0.000002 0.000004 3.635343 -6.110979 61.464449 7.728623 -6.904453 96.464449 2.305157 -5.174785 47.998738 -0.000000 -0.000001 0.000002 -10.785963 27.290663 -3.467565 52.724430 -0.107954 2.387761 -29.033225 22.570767 -10.073493 -0.000114 0.000004 -0.000001 0.000000 0.000000 0.000000 -32.941777 16.869594 -45.369057 86.174953 12.838534 -9.044232 -42.184225 -14.575909 24.526154 -1.794962 0.000011 -0.000008 0.000000 0.000002 0.000000 
1.469561 27.686836 -0.710365 -2.318065 -42.294840 17.046241 0.418683 -1.805209 8.320394 0.080688 -1.191929 5.048755 0.000000 0.000000 0.000000 -0.026331 -1.085798 5.036014 -11.396551 3.371363 7.365482 -19.078931 28.735586 -7.123458 0.000002 0.000002 0.000001 -0.621169 2.423839 13.794340 0.000000 0.000000 0.000000 -32.468373 -33.363732 -47.016656 0.000074 -89.505278 0.000247 -24.397907 -11.122530 -2.975561 14.573616 -27.004432 6.829617 13.798536 36.351298 -28.336081 0.869706 16.254228 -9.818230 0.000001 -0.000004 0.000001 0.215237 1.711484 -14.335247 0.390032 2.288681 -19.340143 0.098156 1.160843 -9.666169 -0.000001 -0.000001 0.000004 0.214755 1.709620 -14.319240 0.390673 2.290510 -19.356157 0.098164 1.160837 -9.666169 0.000000 0.000001 -0.000002 0.215234 1.711486 -14.335240 0.390041 2.288678 -19.340149 0.098150 1.160836 -9.666170 0.000000 0.000000 0.000004 -0.002581 -5.888125 7.492457 0.000000 0.000000 0.000000 118.408610 71.655979 -83.809317 0.000004 25.428893 -0.000020 -19.616658 4.100335 -3.061036 40.606619 -3.110583 26.124205 -37.849524 -44.265039 -46.874970 -12.282863 -22.415233 -17.633366 0.000001 0.000000 0.000005 3.635331 -6.110973 61.464463 7.728616 -6.904476 96.464462 2.305159 -5.174784 47.998734 -0.000001 -0.000001 -0.000001 3.635343 -6.110978 61.464463 7.728618 -6.904467 96.464442 2.305154 -5.174784 47.998731 -0.000002 -0.000000 0.000002 3.635343 -6.110979 61.464449 7.728628 -6.904457 96.464449 2.305160 -5.174785 47.998738 0.000006 0.000003 0.000004 -11.244029 26.651072 -4.090298 51.855141 0.249583 1.882503 -28.610407 22.525651 -9.503693 -0.000112 0.000003 0.000000 0.000000 0.000000 0.000000 -34.133327 16.938999 -44.850007 85.651160 12.377659 -9.112992 -41.274690 -14.117837 24.649731 -2.160220 0.000013 -0.000004 -0.000000 0.000001 -0.000000 
1.592835 27.856609 -0.636170 -1.422063 -41.883365 17.630462 0.469369 -1.497853 8.307006 0.140024 -0.990054 5.027510 0.000000 0.000000 0.000000 0.034601 -0.892058 5.011685 -11.378204 3.392046 6.943754 -18.730009 28.242399 -7.478138 0.000000 0.000003 0.000001 -0.713347 2.845074 13.378975 0.000000 0.000000 0.000000 -31.471753 -33.569434 -46.626232 -0.000276 -90.797004 -0.000292 -24.660335 -11.610449 -3.034239 15.084982 -27.036525 6.348035 14.365780 36.116831 -28.424983 1.150538 16.196971 -9.826628 -0.000000 -0.000000 0.000002 0.228966 1.764271 -14.787780 0.401512 2.321129 -19.625729 0.101070 1.177794 -9.808809 -0.000001 0.000001 0.000000 0.228476 1.762410 -14.771754 0.402163 2.322953 -19.641742 0.101074 1.177790 -9.808807 0.000000 -0.000001 0.000001 0.228963 1.764280 -14.787774 0.401526 2.321131 -19.625736 0.101065 1.177793 -9.808798 0.000001 0.000001 0.000000 0.007042 -5.858263 7.548244 0.000000 0.000000 0.000000 118.019604 71.112508 -83.953489 0.000006 25.056460 -0.000015 -20.278287 5.167628 -2.331188 40.606619 -3.110582 26.124205 -37.849521 -44.265042 -46.874967 -12.282862 -22.415233 -17.633363 0.000002 -0.000001 0.000003 3.635329 -6.110974 61.464456 7.728620 -6.904474 96.464462 2.305165 -5.174786 47.998731 -0.000001 -0.000000 0.000001 3.635341 -6.110978 61.464456 7.728622 -6.904471 96.464442 2.305151 -5.174785 47.998738 -0.000000 -0.000001 -0.000002 3.635339 -6.110979 61.464442 7.728628 -6.904461 96.464449 2.305158 -5.174786 47.998738 -0.000000 0.000000 0.000000 -11.588814 26.220010 -4.737420 50.662030 0.656459 1.483700 -27.989299 22.328816 -8.985766 -0.000116 0.000004 -0.000001 0.000000 -0.000000 -0.000000 -35.657638 16.850510 -44.145398 85.052207 11.755930 -9.232260 -40.256404 -13.269868 24.675124 -2.520315 0.000019 -0.000004 -0.000000 -0.000002 -0.000000 
1.713001 28.056137 -0.569418 -0.499570 -41.484117 18.207549 0.521942 -1.194677 8.272676 0.196460 -0.793561 5.000024 0.000000 0.000000 0.000000 0.093391 -0.702942 4.982100 -11.340865 3.432826 6.607817 -18.475211 27.971491 -7.838871 0.000000 0.000000 -0.000002 -0.812572 3.306771 12.932740 0.000000 0.000000 0.000000 -30.510537 -33.820621 -46.309355 0.000074 -91.652799 0.000111 -24.476000 -12.258149 -3.030203 15.586990 -27.071567 5.859844 14.927339 35.881702 -28.509747 1.429815 16.139631 -9.834642 -0.000001 -0.000001 -0.000002 0.243044 1.816746 -15.238227 0.413109 2.353350 -19.910008 0.104005 1.194664 -9.950773 -0.000000 -0.000001 0.000005 0.242538 1.814874 -15.222227 0.413763 2.355183 -19.926011 0.104013 1.194656 -9.950783 -0.000000 -0.000000 0.000006 0.243042 1.816741 -15.238227 0.413113 2.353356 -19.910007 0.104005 1.194663 -9.950769 -0.000001 -0.000002 0.000005 0.016841 -5.810535 7.566496 0.000000 0.000000 0.000000 117.834342 70.381411 -84.393770 0.000006 24.613668 0.000001 -21.332916 6.419906 -1.469737 40.606615 -3.110581 26.124207 -37.849527 -44.265046 -46.874960 -12.282863 -22.415229 -17.633363 0.000001 -0.000003 0.000001 3.635333 -6.110975 61.464456 7.728617 -6.904473 96.464462 2.305163 -5.174786 47.998734 0.000002 -0.000001 0.000001 3.635343 -6.110978 61.464456 7.728618 -6.904470 96.464442 2.305149 -5.174787 47.998738 0.000002 0.000001 0.000001 3.635346 -6.110978 61.464449 7.728625 -6.904460 96.464449 2.305159 -5.174784 47.998738 0.000004 0.000002 0.000000 -11.839986 26.023186 -5.368513 49.196907 1.065911 1.240811 -27.168616 21.973776 -8.549475 -0.000112 0.000005 -0.000001 0.000000 0.000000 0.000000 -37.359311 16.578858 -43.417119 84.281912 11.053877 -9.383601 -39.080215 -12.179505 24.676288 -2.930780 0.000016 0.000005 -0.000000 -0.000001 0.000000 
1.824841 28.275795 -0.508522 0.391836 -41.065638 18.727651 0.575050 -0.909508 8.227280 0.248647 -0.611692 4.969979 0.000000 0.000000 0.000000 0.148296 -0.527141 4.950949 -11.272894 3.482790 6.354420 -18.308206 27.862777 -8.161828 -0.000001 0.000000 -0.000000 -0.900968 3.730489 12.504870 0.000000 0.000000 0.000000 -29.630016 -34.106386 -46.030158 -0.000036 -92.013590 -0.000091 -23.924855 -12.912415 -2.806837 16.070807 -27.112740 5.348489 15.482543 35.646276 -28.590209 1.707271 16.082240 -9.842250 0.000001 -0.000000 0.000003 0.257435 1.868770 -15.686047 0.424800 2.385334 -20.192659 0.106961 1.211435 -10.091922 0.000001 -0.000002 0.000000 0.256909 1.866906 -15.670061 0.425468 2.387154 -20.208667 0.106961 1.211435 -10.091910 0.000001 -0.000000 0.000001 0.257434 1.868771 -15.686055 0.424796 2.385351 -20.192652 0.106974 1.211424 -10.091929 0.000001 0.000001 -0.000002 0.026409 -5.749834 7.553657 0.000000 0.000000 0.000000 117.949649 69.470100 -85.203946 0.000003 24.027697 -0.000014 -22.763168 7.804062 -0.630973 40.606612 -3.110582 26.124205 -37.849521 -44.265046 -46.874967 -12.282866 -22.415224 -17.633361 0.000001 0.000000 0.000005 3.635331 -6.110974 61.464456 7.728617 -6.904478 96.464462 2.305163 -5.174787 47.998728 0.000002 -0.000001 -0.000000 3.635343 -6.110977 61.464463 7.728619 -6.904473 96.464442 2.305157 -5.174783 47.998738 -0.000002 0.000001 -0.000000 3.635343 -6.110979 61.464449 7.728625 -6.904454 96.464449 2.305154 -5.174786 47.998741 -0.000003 0.000002 0.000001 -12.004353 26.024044 -5.959793 47.550640 1.443034 1.156927 -26.202711 21.478524 -8.188419 -0.000111 0.000003 0.000000 0.000000 0.000000 0.000000 -39.175353 16.126486 -42.655484 83.377943 10.377578 -9.569342 -37.777274 -10.964240 24.579056 -3.275440 -0.000004 0.000004 -0.000000 -0.000002 -0.000000 
1.926333 28.500908 -0.452489 1.180202 -40.598211 19.131339 0.636009 -0.648764 8.176478 0.303665 -0.446555 4.938158 0.000000 0.000000 0.000000 0.206235 -0.366716 4.918817 -11.178948 3.524057 6.170238 -18.184585 27.810638 -8.427556 0.000001 0.000001 0.000001 -0.962638 4.040601 12.140048 0.000000 0.000000 0.000000 -28.878036 -34.352074 -45.784756 -0.000046 -91.855553 -0.000060 -23.085531 -13.437110 -2.395574 16.540632 -27.157587 4.825638 16.030845 35.410884 -28.666430 1.982526 16.024893 -9.849450 -0.000003 -0.000001 -0.000002 0.272130 1.920339 -16.130743 0.436556 2.417047 -20.473282 0.109956 1.228068 -10.232043 0.000001 0.000001 0.000000 0.271600 1.918491 -16.114737 0.437226 2.418850 -20.489306 0.109955 1.228068 -10.232039 -0.000001 -0.000000 -0.000001 0.272133 1.920349 -16.130743 0.436554 2.417042 -20.473296 0.109960 1.228069 -10.232032 0.000002 0.000000 0.000002 0.036317 -5.681955 7.530138 0.000000 0.000000 0.000000 118.357179 68.429521 -86.353822 -0.000009 23.250507 -0.000000 -24.466957 9.249864 0.079138 40.606615 -3.110584 26.124207 -37.849517 -44.265042 -46.874970 -12.282862 -22.415236 -17.633366 -0.000002 0.000002 -0.000000 3.635328 -6.110976 61.464456 7.728619 -6.904478 96.464462 2.305153 -5.174786 47.998728 -0.000004 0.000001 -0.000001 3.635342 -6.110979 61.464456 7.728621 -6.904472 96.464442 2.305154 -5.174784 47.998731 0.000000 -0.000000 -0.000001 3.635343 -6.110982 61.464449 7.728626 -6.904460 96.464449 2.305160 -5.174786 47.998738 -0.000002 -0.000000 0.000001 -12.115542 26.135155 -6.477742 45.870283 1.759495 1.187453 -25.181970 20.885907 -7.873489 -0.000115 0.000005 -0.000000 -0.000000 -0.000000 -0.000000 -40.939304 15.486272 -41.894601 82.404976 9.757908 -9.760323 -36.444100 -9.778942 24.368607 -3.504907 0.000021 0.000006 -0.000000 -0.000002 -0.000000 
